<?xml version="1.0" encoding="UTF-8" standalone="no"?>
<svg xmlns:svg="http://www.w3.org/2000/svg" xmlns="http://www.w3.org/2000/svg"
     width="1080" height="400">
	<g style="font-size:40;font-style:normal;font-weight:normal;fill:#000000;fill-opacity:1;font-family:sans-serif;stroke:#000000;stroke-opacity:1">
		<g id="qubit0">
			<g id="x0" transform="translate(0,25)">
				<line x1="12" y1="0" x2="12" y2="50" style="stroke-width:4"/>
				<text x="20" y="40">x</text>
				<text x="44" y="47" style="font-size:20;">0</text>
				<polyline points="60 0 70 25 60 50" style="fill:none;stroke-width:4"/>
			</g>
			<line x1="80" y1="50" x2="830" y2="50" style="stroke-width:4"/>
			<g id="50" transform="translate(830,10)">
				<rect x="0" y="0" width="80" height="80" rx="0" ry="0" style="fill:#ffffff;fill-opacity:0.5;stroke-width:4;"/>
				<text x="25" y="55">H</text>
			</g>
			<line x1="910" y1="50" x2="980" y2="50" style="stroke-width:4"/>
			<g id="y2" transform="translate(990,25)">
				<line x1="12" y1="0" x2="12" y2="50" style="stroke-width:4"/>
				<text x="20" y="40">y</text>
				<text x="44" y="47" style="font-size:20;">2</text>
				<polyline points="60 0 70 25 60 50" style="fill:none;stroke-width:4"/>
			</g>
		</g>


		<g id="qubit1" transform="translate(0,150)">
			<g id="x1" transform="translate(0,25)">
				<line x1="12" y1="0" x2="12" y2="50" style="stroke-width:4"/>
				<text x="20" y="40">x</text>
				<text x="44" y="47" style="font-size:20;">1</text>
				<polyline points="60 0 70 25 60 50" style="fill:none;stroke-width:4"/>
			</g>
			<line x1="80" y1="50" x2="550" y2="50" style="stroke-width:4"/>
			<g id="h1" transform="translate(550,10)">
				<rect x="0" y="0" width="80" height="80" rx="0" ry="0" style="fill:#ffffff;fill-opacity:0.5;stroke-width:4;"/>
				<text x="25" y="55">H</text>
			</g>
			<line x1="630" y1="50" x2="670" y2="50" style="stroke-width:4"/>
			<g id="r4_1" transform="translate(670,10)">
				<rect x="0" y="0" width="80" height="80" rx="0" ry="0" style="fill:#ffffff;fill-opacity:0.5;stroke-width:4;"/>
				<text x="20" y="55">R</text>
				<text x="47" y="62" style="font-size:20;">4</text>
				<line x1="40" y1="0" x2="40" y2="-110" style="stroke-width:4"/>
				<circle cx="40" cy="-110" r="10"/>
			</g>
			<line x1="750" y1="50" x2="980" y2="50" style="stroke-width:4"/>
			<g id="y1" transform="translate(990,25)">
				<line x1="12" y1="0" x2="12" y2="50" style="stroke-width:4"/>
				<text x="20" y="40">y</text>
				<text x="44" y="47" style="font-size:20;">1</text>
				<polyline points="60 0 70 25 60 50" style="fill:none;stroke-width:4"/>
			</g>
		</g>


		<g id="qubit2" transform="translate(0,300)">
			<g id="x2" transform="translate(0,25)">
				<line x1="12" y1="0" x2="12" y2="50" style="stroke-width:4"/>
				<text x="20" y="40">x</text>
				<text x="44" y="47" style="font-size:20;">2</text>
				<polyline points="60 0 70 25 60 50" style="fill:none;stroke-width:4"/>
			</g>
			<line x1="80" y1="50" x2="150" y2="50" style="stroke-width:4"/>
			<g transform="translate(150,10)">
				<rect x="0" y="0" width="80" height="80" rx="0" ry="0" style="fill:#ffffff;fill-opacity:0.5;stroke-width:4;"/>
				<text x="25" y="55">H</text>
			</g>
			<line x1="230" y1="50" x2="270" y2="50" style="stroke-width:4"/>
			<g transform="translate(270,10)">
				<rect x="0" y="0" width="80" height="80" rx="0" ry="0" style="fill:#ffffff;fill-opacity:0.5;stroke-width:4;"/>
				<text x="20" y="55">R</text>
				<text x="47" y="62" style="font-size:20;">4</text>
				<line x1="40" y1="0" x2="40" y2="-110" style="stroke-width:4"/>
				<circle cx="40" cy="-110" r="10"/>
			</g>
			<line x1="350" y1="50" x2="390" y2="50" style="stroke-width:4"/>
			<g transform="translate(390,10)">
				<rect x="0" y="0" width="80" height="80" rx="0" ry="0" style="fill:#ffffff;fill-opacity:0.5;stroke-width:4;"/>
				<text x="20" y="55">R</text>
				<text x="47" y="62" style="font-size:20;">8</text>
				<line x1="40" y1="0" x2="40" y2="-260" style="stroke-width:4"/>
				<circle cx="40" cy="-260" r="10"/>
			</g>
			<line x1="470" y1="50" x2="980" y2="50" style="stroke-width:4"/>
			<g id="y0" transform="translate(990,25)">
				<line x1="12" y1="0" x2="12" y2="50" style="stroke-width:4"/>
				<text x="20" y="40">y</text>
				<text x="44" y="47" style="font-size:20;">0</text>
				<polyline points="60 0 70 25 60 50" style="fill:none;stroke-width:4"/>
			</g>
		</g>
	</g>
</svg>
